<svg version="1.2" xmlns="http://www.w3.org/2000/svg" overflow="visible" preserveAspectRatio="none" viewBox="-23 0 514 514.001" width="91" height="91"><g fill="#001f5b"><path d="M349.945 222.64v-96.894c0-2.773-1.28-5.336-3.093-7.363L238.219 4.309C236.19 2.176 233.309 1 230.429 1H58.196C26.398 1 1 26.93 1 58.73v325.684c0 31.8 25.398 57.305 57.195 57.305h135.953C219.863 484.402 266.605 513 319.852 513c80.886 0 146.941-65.734 146.941-146.727.11-70.75-50.688-129.867-116.848-143.632zM241.102 38.458l72.882 76.723h-47.273c-14.086 0-25.61-11.63-25.61-25.715zM58.195 420.375c-19.953 0-35.851-16.008-35.851-35.96V58.73c0-20.062 15.898-36.386 35.851-36.386h161.563v67.12c0 25.93 21.023 47.06 46.953 47.06h61.89v83.34c-3.199-.106-5.761-.427-8.535-.427-37.242 0-71.496 14.301-97.32 36.711H87.223c-5.871 0-10.672 4.801-10.672 10.668 0 5.872 4.8 10.672 10.672 10.672h115.675c-7.578 10.672-13.875 21.344-18.78 33.082H87.222c-5.871 0-10.672 4.801-10.672 10.672 0 5.867 4.8 10.672 10.672 10.672h89.957c-2.668 10.672-4.055 22.516-4.055 34.36 0 19.206 3.734 38.203 10.457 54.21H58.195zm261.766 71.39c-69.149 0-125.387-56.238-125.387-125.386 0-69.149 56.13-125.387 125.387-125.387 69.254 0 125.383 56.238 125.383 125.387 0 69.148-56.235 125.387-125.383 125.387zm0 0" vector-effect="non-scaling-stroke"/><path d="M87.223 224.027H195.32c5.871 0 10.672-4.804 10.672-10.672 0-5.87-4.8-10.671-10.672-10.671H87.223c-5.871 0-10.672 4.8-10.672 10.671 0 5.868 4.8 10.672 10.672 10.672zm287.371 140.11l-43.856 47.273V294.883c0-5.871-4.804-10.672-10.672-10.672-5.87 0-10.671 4.8-10.671 10.672V411.41l-44.18-47.273c-4.055-4.266-10.883-4.586-15.152-.532-4.27 4.055-4.59 10.778-.532 15.047l62.426 67.121c2.027 2.133 4.8 3.414 7.79 3.414 2.987 0 5.76-1.28 7.788-3.414l62.535-67.12c4.055-4.27 3.84-11.098-.43-15.048-4.374-4.054-10.988-3.734-15.046.532zm0 0" vector-effect="non-scaling-stroke"/></g></svg>