<svg version="1.2" xmlns="http://www.w3.org/2000/svg" overflow="visible" preserveAspectRatio="none" viewBox="0 0 24 24" width="28" height="28"><path xmlns:default="http://www.w3.org/2000/svg" d="M20.05 8.23c0-.27-.1-.52-.29-.71l-1.42-1.41c-.39-.39-1.02-.39-1.41-.01l-.01.01-6.83 6.84-3.06-3.07c-.39-.39-1.02-.39-1.41-.01l-.01.01-1.41 1.41c-.39.39-.39 1.02-.01 1.41l.01.01 5.18 5.18c.39.39 1.02.39 1.41.01l.01-.01 9-9a.99.99 0 0 0 .29-.71l-.04.05z" vector-effect="non-scaling-stroke" fill="#001f5b"/></svg>