<svg version="1.2" xmlns="http://www.w3.org/2000/svg" overflow="visible" preserveAspectRatio="none" viewBox="0 0 478.76 95.14" width="220" height="43"><g transform="translate(1 1)"><defs><style>.cls-1_1585688829999{fill:#fff;fill-rule:evenodd}.cls-3_1585688829999{fill-rule:evenodd;fill:#fcee21}</style></defs><g id="Layer_2_1585688829999"><g id="bases_ok_1585688829999"><path d="M84.34 49.56q0-11.31 9.82-18.3 9.45-6.75 24.35-7.2v9.25a24.5 24.5 0 0 0-12.26 4.63c-4.19 3.08-6.3 7-6.3 11.62q0 7.39 7.13 12a27.77 27.77 0 0 0 11.43 4.16v9.58q-13.8-.45-23.19-6.43-10.96-7.03-10.98-19.31zm57.43 25.83q-9.45 0-14.91-5.84c-3.41-3.74-5.13-8.56-5.13-14.54s1.67-10.86 5-14.5c3.56-3.94 8.55-5.91 15-5.91s11.48 2 15 5.91q5 5.46 5 14.5c0 6-1.73 10.8-5.21 14.54-3.52 3.89-8.46 5.84-14.75 5.84zm0-32.89c-3.59 0-5.4 4.17-5.4 12.51 0 8.15 1.81 12.21 5.4 12.21 1.8 0 3.09-1 3.85-3.07.73-1.89 1.1-4.93 1.1-9.14 0-8.34-1.66-12.51-4.95-12.51z" class="cls-1_1585688829999" vector-effect="non-scaling-stroke"/><path vector-effect="non-scaling-stroke" fill="#fff" d="M165.53 24.84h15.1v49.72h-15.1z"/><path d="M199.77 75.39a61.27 61.27 0 0 1-14-1.6l.38-8.12a31.42 31.42 0 0 0 10.6 1.55q8.35 0 8.35-5.13c0-1.59-1.09-3-3.27-4.37-3.3-1.62-6.61-3.23-9.9-4.81q-5.9-3.46-5.78-8.29c.08-2.74 1.64-5 4.63-6.88 3.39-2.09 8.08-3.14 14.13-3.14a45.36 45.36 0 0 1 10.15 1.4l.39 7.51a27 27 0 0 0-7.07-.9c-4.46 0-6.68 1-6.68 2.95 0 1.6 1.22 3 3.67 4.12l5.78 2.19a16.18 16.18 0 0 1 6 3.66 9.47 9.47 0 0 1 2.64 6.93 10.89 10.89 0 0 1-5.2 9.64q-5.18 3.28-14.82 3.29zm56.91-2.7q-5.19 2.7-13.67 2.7-9.58 0-15-3.67-5-3.31-5-8.74V35.5h15l.06 25.43c0 3.61 1.66 5.41 4.95 5.41q5.38 0 5.39-5.41V35.5h14.66v39.06zm26.61 1.87h-15.75V24.84h14.64v9.94q14.71 1.94 22 8.49a17.41 17.41 0 0 1 6.05 13.61q-.19 9.45-6.63 13.55t-20.31 4.13zm-1.11-30.72v22.54c4.12 0 7.11-.47 8.94-1.46 2.66-1.46 4-4.12 4-8a12.53 12.53 0 0 0-3.86-9 12.09 12.09 0 0 0-9.08-4.08zm43.95 31.55a61.33 61.33 0 0 1-14-1.6l.38-8.12a31.28 31.28 0 0 0 10.59 1.55q8.37 0 8.36-5.13c0-1.59-1.08-3-3.27-4.37-3.3-1.62-6.59-3.23-9.9-4.81q-5.91-3.46-5.78-8.29c.08-2.74 1.63-5 4.62-6.88 3.4-2.09 8.09-3.14 14.14-3.14a45.58 45.58 0 0 1 10.15 1.4l.37 7.51a26.84 26.84 0 0 0-7.05-.9c-4.45 0-6.69 1-6.69 2.95 0 1.6 1.22 3 3.67 4.12l5.78 2.19a16.54 16.54 0 0 1 6 3.66 9.57 9.57 0 0 1 2.62 6.93 10.87 10.87 0 0 1-5.2 9.64q-5.16 3.28-14.79 3.29zM350 30.61v-5.77h14.65v5.77zm0 44V35.75h14.65v38.81zm46-.05q-13.92 0-20.35-4.13c-4.25-2.73-6.42-7.25-6.57-13.55a17.48 17.48 0 0 1 6.05-13.61q7.26-6.57 22-8.49v-9.94h14.65v49.72zm1.1-30.72a12.33 12.33 0 0 0-9.13 4 12.56 12.56 0 0 0-3.78 9c0 3.92 1.31 6.58 4 8 1.85 1 4.81 1.46 8.93 1.46zm20.43-13.23v-5.77h14.65v5.77zm0 44V35.75h14.65v38.81zm39.19.78c-6.29 0-11.27-2-14.9-5.84-3.44-3.74-5.14-8.56-5.14-14.54s1.68-10.86 5-14.5q5.32-5.91 15-5.91t15 5.91q5 5.46 5 14.5c0 6-1.73 10.8-5.21 14.54-3.47 3.89-8.47 5.84-14.75 5.84zm0-32.89q-5.4 0-5.4 12.51c0 8.15 1.8 12.21 5.4 12.21q2.7 0 3.85-3.07c.74-1.89 1.09-4.93 1.09-9.14q0-12.51-4.94-12.51z" class="cls-1_1585688829999" vector-effect="non-scaling-stroke"/><path class="cls-3_1585688829999" vector-effect="non-scaling-stroke" d="M0 46.6l18.41-20.83v41.64L0 46.6zm42.35 24.43v20.28L21.03 69.95V49.67l21.32 21.36zM22.88 21.32l19.5-19.48v19.48h-19.5z"/><path vector-effect="non-scaling-stroke" fill="#fcee21" d="M21.03 23.92h21.36v21.32H21.03z"/><path class="cls-3_1585688829999" vector-effect="non-scaling-stroke" d="M22.88 47.84h19.5v19.48l-19.5-19.48zM88.46 0L44.98 43.47V0h43.48zM44.94 93.14V49.66l43.47 43.48H44.94z"/></g></g></g></svg>