<?xml version="1.0" encoding="utf-8"?>
<!-- Generator: Adobe Illustrator 24.0.2, SVG Export Plug-In . SVG Version: 6.00 Build 0)  -->
<svg version="1.1" id="Capa_1" xmlns="http://www.w3.org/2000/svg" xmlns:xlink="http://www.w3.org/1999/xlink" x="0px" y="0px"
	 width="220px" height="43px" viewBox="0 0 220 43" style="enable-background:new 0 0 220 43;" xml:space="preserve">
<style type="text/css">
	.st0{fill:#FFCF00;}
	.st1{fill:#FFFFFF;}
</style>
<g>
	<g>
		<polygon class="st0" points="7.4,21.6 16.2,12.8 16.2,30.4 		"/>
		<polygon class="st0" points="26.3,31.9 26.3,40.4 17.3,31.4 17.3,22.9 		"/>
		<polygon class="st0" points="18.1,10.9 26.3,2.7 26.3,10.9 		"/>
		<rect x="17.3" y="12" class="st0" width="9" height="9"/>
		<polygon class="st0" points="18.1,22.1 26.3,22.1 26.3,30.3 		"/>
		<polygon class="st0" points="45.7,2 27.4,20.3 27.4,2 		"/>
		<polygon class="st0" points="27.4,41.2 27.4,22.9 45.7,41.2 		"/>
	</g>
	<g>
		<g>
			<path class="st1" d="M56.2,36.5l-0.8,0.8c-0.4-0.4-0.8-0.6-1.4-0.6c-0.5,0-0.9,0.2-1.2,0.5c-0.3,0.3-0.5,0.7-0.5,1.2
				s0.2,0.9,0.5,1.2c0.3,0.3,0.7,0.5,1.2,0.5c0.5,0,1-0.2,1.4-0.6l0.8,0.8c-0.6,0.6-1.3,0.9-2.2,0.9c-0.8,0-1.5-0.3-2.1-0.8
				c-0.6-0.5-0.9-1.2-0.9-2s0.3-1.5,0.9-2c0.6-0.5,1.3-0.8,2.1-0.8C54.9,35.5,55.6,35.9,56.2,36.5z"/>
			<path class="st1" d="M57.6,38.4c0-0.8,0.3-1.5,0.9-2c0.6-0.5,1.3-0.8,2.1-0.8c0.8,0,1.5,0.3,2.1,0.8c0.6,0.5,0.9,1.2,0.9,2
				s-0.3,1.5-0.9,2c-0.6,0.5-1.3,0.8-2.1,0.8c-0.8,0-1.5-0.3-2.1-0.8C57.9,39.9,57.6,39.2,57.6,38.4z M61.8,39.6
				c0.3-0.3,0.5-0.7,0.5-1.2s-0.2-0.9-0.5-1.2c-0.3-0.3-0.7-0.5-1.2-0.5c-0.5,0-0.9,0.2-1.2,0.5c-0.3,0.3-0.5,0.7-0.5,1.2
				s0.2,0.9,0.5,1.2c0.3,0.3,0.7,0.5,1.2,0.5C61.1,40.1,61.5,39.9,61.8,39.6z"/>
			<path class="st1" d="M65.4,41.1v-5.4h1.3v0.8c0.3-0.5,0.9-0.9,1.6-0.9c1.3,0,2,0.8,2,2.2v1.7c0,0.4,0.1,0.6,0.4,0.6
				c0.1,0,0.1,0,0.2,0v1.1c-0.2,0-0.3,0.1-0.6,0.1c-0.9,0-1.3-0.5-1.3-1.4v-1.8c0-0.7-0.4-1.2-1.2-1.2c-0.7,0-1.2,0.5-1.2,1.2v3.1
				H65.4z"/>
			<path class="st1" d="M76.2,36.9h-0.7v-1.2h0.7v-2.1h1.3v2.1h1.2v1.2h-1.2v2.4c0,0.6,0.2,0.8,0.7,0.8c0.2,0,0.3,0,0.5,0v1.1
				c-0.2,0-0.4,0.1-0.7,0.1c-1.2,0-1.8-0.6-1.8-1.8V36.9z"/>
			<path class="st1" d="M80.1,38.4c0-0.8,0.3-1.5,0.9-2c0.6-0.5,1.3-0.8,2.1-0.8c0.8,0,1.5,0.3,2.1,0.8c0.6,0.5,0.9,1.2,0.9,2
				s-0.3,1.5-0.9,2c-0.6,0.5-1.3,0.8-2.1,0.8c-0.8,0-1.5-0.3-2.1-0.8C80.4,39.9,80.1,39.2,80.1,38.4z M84.3,39.6
				c0.3-0.3,0.5-0.7,0.5-1.2s-0.2-0.9-0.5-1.2c-0.3-0.3-0.7-0.5-1.2-0.5c-0.5,0-0.9,0.2-1.2,0.5c-0.3,0.3-0.5,0.7-0.5,1.2
				s0.2,0.9,0.5,1.2c0.3,0.3,0.7,0.5,1.2,0.5C83.6,40.1,84,39.9,84.3,39.6z"/>
			<path class="st1" d="M92.2,36.5v-2.8h1.3v5.8c0,0.5,0.1,0.6,0.4,0.6c0.1,0,0.2,0,0.3,0v1c-0.1,0.1-0.4,0.1-0.6,0.1
				c-0.3,0-0.6-0.1-0.8-0.2c-0.2-0.2-0.4-0.4-0.4-0.7c-0.4,0.6-1,0.8-1.9,0.8c-0.8,0-1.4-0.3-2-0.8c-0.5-0.5-0.8-1.2-0.8-2
				s0.3-1.5,0.8-2c0.5-0.5,1.2-0.8,2-0.8C91.4,35.6,92,36,92.2,36.5z M91.8,39.6c0.3-0.3,0.5-0.7,0.5-1.2s-0.2-0.9-0.5-1.2
				c-0.3-0.3-0.7-0.5-1.2-0.5c-0.5,0-0.8,0.2-1.2,0.5c-0.3,0.3-0.5,0.7-0.5,1.2s0.2,0.9,0.5,1.2c0.3,0.3,0.7,0.5,1.2,0.5
				C91.1,40,91.5,39.9,91.8,39.6z"/>
			<path class="st1" d="M95.5,38.4c0-0.8,0.3-1.5,0.9-2c0.6-0.5,1.3-0.8,2.1-0.8c0.8,0,1.5,0.3,2.1,0.8c0.6,0.5,0.9,1.2,0.9,2
				s-0.3,1.5-0.9,2c-0.6,0.5-1.3,0.8-2.1,0.8c-0.8,0-1.5-0.3-2.1-0.8C95.8,39.9,95.5,39.2,95.5,38.4z M99.7,39.6
				c0.3-0.3,0.5-0.7,0.5-1.2s-0.2-0.9-0.5-1.2c-0.3-0.3-0.7-0.5-1.2-0.5c-0.5,0-0.9,0.2-1.2,0.5c-0.3,0.3-0.5,0.7-0.5,1.2
				s0.2,0.9,0.5,1.2c0.3,0.3,0.7,0.5,1.2,0.5C99,40.1,99.4,39.9,99.7,39.6z"/>
			<path class="st1" d="M106.6,33.7h1.3v5.7c0,0.5,0.2,0.7,0.7,0.7c0.2,0,0.3,0,0.4,0v1.1c-0.2,0-0.4,0.1-0.6,0.1
				c-1.2,0-1.7-0.6-1.7-1.7V33.7z"/>
			<path class="st1" d="M110.3,38.4c0-0.8,0.3-1.5,0.9-2c0.6-0.5,1.3-0.8,2.1-0.8c0.8,0,1.5,0.3,2.1,0.8c0.6,0.5,0.9,1.2,0.9,2
				s-0.3,1.5-0.9,2c-0.6,0.5-1.3,0.8-2.1,0.8c-0.8,0-1.5-0.3-2.1-0.8C110.6,39.9,110.3,39.2,110.3,38.4z M114.5,39.6
				c0.3-0.3,0.5-0.7,0.5-1.2s-0.2-0.9-0.5-1.2c-0.3-0.3-0.7-0.5-1.2-0.5c-0.5,0-0.9,0.2-1.2,0.5c-0.3,0.3-0.5,0.7-0.5,1.2
				s0.2,0.9,0.5,1.2c0.3,0.3,0.7,0.5,1.2,0.5C113.8,40.1,114.2,39.9,114.5,39.6z"/>
			<path class="st1" d="M126.9,43.2h-1.3v-2.8c-0.2,0.5-0.8,0.9-1.8,0.9c-0.8,0-1.4-0.3-2-0.8c-0.5-0.5-0.8-1.2-0.8-2s0.3-1.5,0.8-2
				c0.5-0.5,1.2-0.8,2-0.8c0.9,0,1.6,0.4,1.8,0.9v-0.8h1.3V43.2z M122.8,37.2c-0.3,0.3-0.5,0.7-0.5,1.2s0.2,0.9,0.5,1.2
				c0.3,0.3,0.7,0.5,1.2,0.5s0.9-0.2,1.2-0.5c0.3-0.3,0.5-0.7,0.5-1.2s-0.2-0.9-0.5-1.2c-0.3-0.3-0.7-0.5-1.2-0.5
				S123.1,36.9,122.8,37.2z"/>
			<path class="st1" d="M128.8,35.7h1.3v3.1c0,0.7,0.4,1.2,1.1,1.2c0.7,0,1.2-0.5,1.2-1.2v-3.1h1.3v3.7c0,0.5,0.1,0.6,0.4,0.6
				c0.1,0,0.2,0,0.3,0v1c-0.1,0.1-0.4,0.1-0.6,0.1c-0.3,0-0.6-0.1-0.8-0.2c-0.2-0.2-0.3-0.3-0.4-0.6c-0.3,0.5-0.9,0.8-1.7,0.8
				c-1.3,0-2.1-0.8-2.1-2.2V35.7z"/>
			<path class="st1" d="M135.8,38.4c0-0.9,0.3-1.5,0.8-2.1c0.5-0.5,1.2-0.8,2.1-0.8c0.8,0,1.4,0.3,1.9,0.8c0.5,0.5,0.8,1.2,0.8,1.9
				c0,0.2,0,0.3,0,0.4h-4.3c0,0.9,0.7,1.4,1.7,1.4c0.6,0,1.1-0.2,1.5-0.6l0.8,0.7c-0.6,0.6-1.4,1-2.3,1c-0.9,0-1.6-0.3-2.1-0.8
				C136.1,40,135.8,39.3,135.8,38.4L135.8,38.4z M140.1,37.8c0-0.3-0.1-0.6-0.4-0.8c-0.3-0.2-0.6-0.4-1-0.4c-0.4,0-0.8,0.1-1.1,0.3
				c-0.3,0.2-0.5,0.5-0.5,0.8H140.1z"/>
			<path class="st1" d="M146.7,36.9h-0.7v-1.2h0.7v-2.1h1.3v2.1h1.2v1.2H148v2.4c0,0.6,0.2,0.8,0.7,0.8c0.2,0,0.3,0,0.5,0v1.1
				c-0.2,0-0.4,0.1-0.7,0.1c-1.2,0-1.8-0.6-1.8-1.8V36.9z"/>
			<path class="st1" d="M150.7,38.4c0-0.9,0.3-1.5,0.8-2.1c0.5-0.5,1.2-0.8,2.1-0.8c0.8,0,1.4,0.3,1.9,0.8c0.5,0.5,0.8,1.2,0.8,1.9
				c0,0.2,0,0.3,0,0.4H152c0,0.9,0.7,1.4,1.7,1.4c0.6,0,1.1-0.2,1.5-0.6l0.8,0.7c-0.6,0.6-1.4,1-2.3,1c-0.9,0-1.6-0.3-2.1-0.8
				C151,40,150.7,39.3,150.7,38.4L150.7,38.4z M155,37.8c0-0.3-0.1-0.6-0.4-0.8c-0.3-0.2-0.6-0.4-1-0.4c-0.4,0-0.8,0.1-1.1,0.3
				c-0.3,0.2-0.5,0.5-0.5,0.8H155z"/>
			<path class="st1" d="M161.5,41.1v-5.4h1.3v0.8c0.2-0.5,0.8-0.9,1.5-0.9c0.8,0,1.3,0.3,1.5,0.9c0.3-0.6,0.9-0.9,1.8-0.9
				c1.2,0,1.9,0.8,1.9,2.2v1.7c0,0.4,0.1,0.6,0.4,0.6c0.1,0,0.1,0,0.2,0v1.1c-0.1,0-0.3,0.1-0.6,0.1c-0.9,0-1.3-0.5-1.3-1.4v-1.8
				c0-0.7-0.3-1.2-1-1.2c-0.6,0-1.1,0.5-1.1,1.2v3.1h-1.3v-3.1c0-0.7-0.4-1.2-1-1.2c-0.6,0-1.1,0.5-1.1,1.2v3.1H161.5z"/>
			<path class="st1" d="M171.4,38.4c0-0.9,0.3-1.5,0.8-2.1c0.5-0.5,1.2-0.8,2.1-0.8c0.8,0,1.4,0.3,1.9,0.8c0.5,0.5,0.8,1.2,0.8,1.9
				c0,0.2,0,0.3,0,0.4h-4.3c0,0.9,0.7,1.4,1.7,1.4c0.6,0,1.1-0.2,1.5-0.6l0.8,0.7c-0.6,0.6-1.4,1-2.3,1c-0.9,0-1.6-0.3-2.1-0.8
				C171.7,40,171.4,39.3,171.4,38.4L171.4,38.4z M175.7,37.8c0-0.3-0.1-0.6-0.4-0.8c-0.3-0.2-0.6-0.4-1-0.4c-0.4,0-0.8,0.1-1.1,0.3
				c-0.3,0.2-0.5,0.5-0.5,0.8H175.7z"/>
			<path class="st1" d="M178.8,41.1v-5.4h1.3v0.8c0.3-0.6,0.9-0.9,1.6-0.9c0.2,0,0.3,0,0.4,0v1.2c-0.2,0-0.3-0.1-0.5-0.1
				c-0.9,0-1.5,0.6-1.5,1.4v2.8H178.8z"/>
			<path class="st1" d="M183.4,38.4c0-0.9,0.3-1.5,0.8-2.1c0.5-0.5,1.2-0.8,2.1-0.8c0.8,0,1.4,0.3,1.9,0.8c0.5,0.5,0.8,1.2,0.8,1.9
				c0,0.2,0,0.3,0,0.4h-4.3c0,0.9,0.7,1.4,1.7,1.4c0.6,0,1.1-0.2,1.5-0.6l0.8,0.7c-0.6,0.6-1.4,1-2.3,1c-0.9,0-1.6-0.3-2.1-0.8
				C183.6,40,183.4,39.3,183.4,38.4L183.4,38.4z M187.6,37.8c0-0.3-0.1-0.6-0.4-0.8c-0.3-0.2-0.6-0.4-1-0.4c-0.4,0-0.8,0.1-1.1,0.3
				c-0.3,0.2-0.5,0.5-0.5,0.8H187.6z"/>
			<path class="st1" d="M195.7,36.5l-0.8,0.8c-0.4-0.4-0.8-0.6-1.4-0.6c-0.5,0-0.9,0.2-1.2,0.5c-0.3,0.3-0.5,0.7-0.5,1.2
				s0.2,0.9,0.5,1.2c0.3,0.3,0.7,0.5,1.2,0.5c0.5,0,1-0.2,1.4-0.6l0.8,0.8c-0.6,0.6-1.3,0.9-2.2,0.9c-0.8,0-1.5-0.3-2.1-0.8
				c-0.6-0.5-0.9-1.2-0.9-2s0.3-1.5,0.9-2c0.6-0.5,1.3-0.8,2.1-0.8C194.4,35.5,195.1,35.9,195.7,36.5z"/>
			<path class="st1" d="M197.1,38.4c0-0.9,0.3-1.5,0.8-2.1c0.5-0.5,1.2-0.8,2.1-0.8c0.8,0,1.4,0.3,1.9,0.8c0.5,0.5,0.8,1.2,0.8,1.9
				c0,0.2,0,0.3,0,0.4h-4.3c0,0.9,0.7,1.4,1.7,1.4c0.6,0,1.1-0.2,1.5-0.6l0.8,0.7c-0.6,0.6-1.4,1-2.3,1c-0.9,0-1.6-0.3-2.1-0.8
				C197.3,40,197.1,39.3,197.1,38.4L197.1,38.4z M201.3,37.8c0-0.3-0.1-0.6-0.4-0.8c-0.3-0.2-0.6-0.4-1-0.4c-0.4,0-0.8,0.1-1.1,0.3
				c-0.3,0.2-0.5,0.5-0.5,0.8H201.3z"/>
			<path class="st1" d="M204.8,39.4c0.3,0.4,0.8,0.7,1.4,0.7c0.7,0,1-0.3,1-0.6c0-0.2-0.1-0.3-0.3-0.4c-0.1-0.1-0.3-0.1-0.5-0.2
				c-0.2-0.1-0.5-0.1-0.7-0.2c-0.9-0.3-1.4-0.7-1.4-1.5c0-0.5,0.2-0.9,0.6-1.2c0.4-0.3,0.8-0.4,1.4-0.4c0.8,0,1.4,0.3,1.8,0.8
				l-0.7,0.8c-0.2-0.3-0.6-0.4-1.1-0.4c-0.4,0-0.7,0.2-0.7,0.5c0,0.2,0.1,0.3,0.3,0.4c0.1,0.1,0.3,0.1,0.4,0.2
				c0.2,0,0.5,0.1,0.7,0.2c1,0.4,1.5,0.8,1.5,1.6c0,1-0.8,1.7-2.3,1.7c-1.1,0-1.9-0.4-2.3-1.1L204.8,39.4z"/>
		</g>
		<path class="st1" d="M57.6,25.9c-2,0-3.7-0.7-5-2c-1.3-1.3-2-3-2-5s0.7-3.7,2-5s3-2,5-2c2.3,0,4.1,0.8,5.6,2.5l3.3-2.8
			c-2.3-2.6-5.4-4.1-9-4.1c-3.3,0-6.1,1.1-8.4,3.3c-2.3,2.2-3.5,4.9-3.5,8.2c0,3.3,1.1,6,3.5,8.2c2.3,2.2,5.1,3.2,8.4,3.2
			c3.5,0,6.7-1.5,9-4.2l-3.3-2.8C61.8,25,59.9,25.9,57.6,25.9z M75.5,13.5c-2.5,0-4.6,0.8-6.3,2.5c-1.7,1.6-2.6,3.6-2.6,6
			s0.9,4.4,2.6,6c1.7,1.6,3.8,2.4,6.3,2.4c2.4,0,4.5-0.8,6.3-2.4c1.7-1.7,2.6-3.7,2.6-6s-0.9-4.4-2.6-6C80.1,14.4,78,13.5,75.5,13.5
			z M78.5,25c-0.8,0.8-1.8,1.2-3,1.2c-1.2,0-2.2-0.4-3-1.2c-0.8-0.8-1.2-1.8-1.2-3s0.4-2.2,1.2-3c0.8-0.8,1.8-1.2,3-1.2
			c1.2,0,2.2,0.4,3,1.2c0.8,0.8,1.2,1.8,1.2,3S79.3,24.2,78.5,25z M90.3,24.1V7.9h-4.7v16.9c0,3.7,1.8,5.6,5.5,5.6l2.3,0v-4.3
			C90.8,26.1,90.3,25.5,90.3,24.1z M124.8,24.4V14h-4.7v9c0,1.9-1.2,3.2-3,3.2c-1.8,0-2.8-1.1-2.8-3V14h-4.7v9.7
			c0,4.2,2.3,6.6,6.3,6.6c2.3,0,3.9-0.8,4.7-2.3c0.2,0.7,0.7,1.2,1.4,1.7c0.7,0.4,1.6,0.6,2.6,0.6c0.9,0,1.6-0.1,2.1-0.3v-3.9
			c0,0-0.6,0-0.8,0C125.1,26.1,124.8,25.7,124.8,24.4z M137.7,13.7c-2.4,0-4.3,1-4.8,2.4V7.9h-4.7V30h4.7v-2.1
			c0.5,1.4,2.3,2.4,4.8,2.4c2.3,0,4.2-0.8,5.7-2.4c1.5-1.6,2.3-3.6,2.3-5.9s-0.8-4.3-2.3-5.9C141.9,14.5,140,13.7,137.7,13.7z
			 M139.7,24.9c-0.8,0.8-1.7,1.1-2.9,1.1c-1.2,0-2.2-0.4-3-1.1c-0.8-0.8-1.2-1.7-1.2-2.9c0-1.1,0.4-2.1,1.2-2.8
			c0.8-0.8,1.8-1.2,3-1.2c1.1,0,2.1,0.4,2.9,1.2c0.8,0.8,1.2,1.7,1.2,2.8C140.9,23.1,140.5,24.1,139.7,24.9z M155.9,20.5
			c-1.8-0.6-3.1-0.9-3.7-1.1c-0.5-0.2-0.7-0.4-0.7-0.9c0-0.6,0.6-1,1.6-1c1.4,0,2.5,0.4,3.4,1.2l2.3-3.1c-1.4-1.4-3.2-2.1-5.5-2.1
			c-1.7,0-3.2,0.4-4.4,1.4c-1.2,0.9-1.8,2.2-1.8,3.8c0,2.1,1.2,3.6,3.7,4.4c0.5,0.2,1.2,0.4,2.2,0.6c1,0.2,1.6,0.4,1.9,0.6
			c0.3,0.2,0.5,0.4,0.5,0.8c0,0.9-0.8,1.3-2.4,1.3c-1.8,0-3.5-0.7-4.4-1.7l-2.7,2.9c1.6,1.9,3.9,2.9,7,2.9c4.7,0,7-2.1,7-5.4
			C159.8,22.9,158.5,21.4,155.9,20.5z M104.5,20.5c-1.8-0.6-3.1-0.9-3.7-1.1c-0.5-0.2-0.7-0.4-0.7-0.9c0-0.6,0.6-1,1.6-1
			c1.4,0,2.5,0.4,3.4,1.2l2.3-3.1c-1.4-1.4-3.2-2.1-5.5-2.1c-1.7,0-3.2,0.4-4.4,1.4c-1.2,0.9-1.8,2.2-1.8,3.8c0,2.1,1.2,3.6,3.7,4.4
			c0.5,0.2,1.2,0.4,2.2,0.6c1,0.2,1.6,0.4,1.9,0.6c0.3,0.2,0.5,0.4,0.5,0.8c0,0.9-0.8,1.3-2.4,1.3c-1.8,0-3.5-0.7-4.4-1.7l-2.7,2.9
			c1.6,1.9,3.9,2.9,7,2.9c4.7,0,7-2.1,7-5.4C108.5,22.9,107.2,21.4,104.5,20.5z M163.8,12.6c1.5,0,2.7-1.2,2.7-2.7
			c0-1.5-1.2-2.7-2.7-2.7c-1.5,0-2.7,1.2-2.7,2.7C161.1,11.5,162.3,12.6,163.8,12.6z M166.6,25.9c-0.2-0.1-0.3-0.3-0.4-0.5
			c-0.1-0.3-0.1-0.6-0.1-1c0,0,0-10.4,0-10.4h-4.7v11.8c0,3,1.4,4.5,4.2,4.5c1,0,2.2,0,2.2,0s0-4.1,0-4.2c-0.1,0-0.2,0-0.3,0
			C167.2,26.1,166.9,26.1,166.6,25.9z M185.8,24.4V7.9h-4.7v8.2c-0.5-1.4-2.3-2.4-4.8-2.4c-2.3,0-4.2,0.8-5.7,2.4
			c-1.5,1.6-2.3,3.6-2.3,5.9c0,2.3,0.8,4.3,2.3,5.9c1.5,1.6,3.4,2.4,5.7,2.4c2.5,0,4.3-0.8,5.3-2.3c0.2,0.7,0.7,1.2,1.4,1.7
			c0.7,0.4,1.6,0.6,2.6,0.6c0.9,0,2.1,0,2.1,0v-4.2c0,0-0.6,0-0.8,0C186.1,26.1,185.8,25.7,185.8,24.4z M180.1,24.9
			c-0.8,0.8-1.8,1.1-3,1.1c-1.1,0-2.1-0.4-2.9-1.1c-0.8-0.8-1.2-1.7-1.2-2.9c0-1.1,0.4-2.1,1.2-2.8c0.8-0.8,1.7-1.2,2.9-1.2
			c1.2,0,2.2,0.4,3,1.2c0.8,0.8,1.2,1.7,1.2,2.8C181.4,23.1,181,24.1,180.1,24.9z M211.2,16c-1.7-1.7-3.8-2.5-6.3-2.5
			c-2.5,0-4.6,0.8-6.3,2.5c-1.7,1.6-2.6,3.6-2.6,6s0.9,4.4,2.6,6c1.7,1.6,3.8,2.4,6.3,2.4c2.4,0,4.5-0.8,6.3-2.4
			c1.7-1.7,2.6-3.7,2.6-6S212.9,17.6,211.2,16z M207.9,25c-0.8,0.8-1.8,1.2-3,1.2c-1.2,0-2.2-0.4-3-1.2c-0.8-0.8-1.2-1.8-1.2-3
			s0.4-2.2,1.2-3c0.8-0.8,1.8-1.2,3-1.2c1.2,0,2.2,0.4,3,1.2c0.8,0.8,1.2,1.8,1.2,3S208.6,24.2,207.9,25z M191.1,12.6
			c1.5,0,2.7-1.2,2.7-2.7c0-1.5-1.2-2.7-2.7-2.7c-1.5,0-2.7,1.2-2.7,2.7C188.4,11.5,189.6,12.6,191.1,12.6z M194,25.9
			c-0.2-0.1-0.3-0.3-0.4-0.5c-0.1-0.3-0.1-0.6-0.1-1c0,0,0-10.4,0-10.4h-4.7v11.8c0,3,1.4,4.5,4.2,4.5c1,0,2.2,0,2.2,0s0-4.1,0-4.2
			c-0.1,0-0.2,0-0.3,0C194.6,26.1,194.2,26.1,194,25.9z"/>
	</g>
</g>
</svg>
