<svg version="1.2" xmlns="http://www.w3.org/2000/svg" overflow="visible" preserveAspectRatio="none" viewBox="0 0 1593.53 531.89" xml:space="preserve" y="0" x="0" id="Capa_1_1585694132025" width="253" height="84"><g transform="translate(1 1)"><style>.st2_1585694132025{fill:#008cc5}.st3_1585694132025{fill:#13a1db}.st6_1585694132025{fill:#0390cb}</style><path vector-effect="non-scaling-stroke" fill="#fff" d="M42.04 133.32h1495.25v262.64H42.04z"/><path d="M637.79 290.18c0-12.17-10.71-15.35-22.34-18.08-7.72-1.81-13.98-3.26-13.98-9.72 0-6.44 5.81-8.8 12.16-8.8 6.89 0 12.82 2.72 16.61 7.81l6.54-4.63c-5.27-6.99-13.53-10.71-22.69-10.71-12.16 0-21.14 6.27-21.14 17.17 0 11.44 9.71 14.88 19.95 17.06 9.35 2.08 16.25 3.45 16.25 10.63 0 6.53-5.52 10.34-13.69 10.34-7.17 0-14.08-2.81-18.26-9.43l-6.99 4.44c4.55 7.53 13.18 12.43 24.61 12.43 13.97 0 22.97-7.44 22.97-18.51zm42.48 9.7v7.72h7.89v-47.2h-7.89v26.24c0 8.81-6.17 14.71-14.34 14.71-8.8 0-10.45-6.63-10.45-12.26V260.4h-7.89v30.51c0 11.16 6.36 17.78 16.53 17.78 6.88 0 12.15-3.17 16.15-8.81zm45.84 8.81c13.35 0 21.69-10.69 21.69-24.69 0-13.89-8.25-24.69-21.69-24.69-6.45 0-12.34 2.45-16.8 8.91v-7.82h-7.89v63.01h7.89v-23.52c4.46 6.36 10.34 8.8 16.8 8.8zM709.3 284.1c0-9.62 5.26-17.43 15.26-17.43s14.8 7.81 14.8 17.43c0 9.62-4.8 17.34-14.8 17.34-9.9 0-15.26-7.72-15.26-17.34zm45.58.08c0 13.99 8.8 24.5 24.16 24.5 8.34 0 14.61-3.08 19.41-8.25l-5.25-5.17c-3.74 3.99-8.36 6.18-13.98 6.18-9.27 0-15.44-5.73-15.88-15.54h37.03c.1-.63.18-1.62.18-3.08 0-13.17-8.61-23.51-22.51-23.51-14.44 0-23.16 10.98-23.16 24.87zm37.49-4.35H763.5c.63-7.99 6.18-13.71 14.43-13.71 7.44-.01 13.63 4.63 14.44 13.71zm45.93-18.61c-1.37-.91-3.72-1.73-6.45-1.73-5.81 0-10.54 3.82-13.7 8.9v-7.99h-7.9v47.2h7.9V283c0-10.16 5.9-15.7 12.15-15.7 2.18 0 3.9.64 5.46 1.46l2.54-7.54zm57.26 27.41c0-12.53-10.71-16.34-23.42-18.61-6.54-1.17-12.35-2.08-12.35-6.53 0-3.9 3.63-5.73 8.72-5.73 5.72 0 11.44 2.18 15.06 7.27l10.82-6.72c-6.09-8.98-15.98-12.26-25.61-12.26-13.99 0-23.42 6.99-23.42 18.53 0 12.71 10.44 16.6 22.78 18.79 7.26 1.26 13.16 2.17 13.16 7.26 0 3.91-4.17 6.27-10.52 6.27-6.79 0-13.35-2.54-17.33-9.35l-11.37 5.98c4.81 9.54 14.88 15.15 28.05 15.15 16.25.01 25.43-8.61 25.43-20.05zm38.02 13.53v5.44h13.9v-48.47h-13.9v27.59c0 6.26-4.26 9.62-9.42 9.62-6.27 0-7.54-4.17-7.54-8.27v-28.95h-13.88v32.14c0 9.8 5.34 17.42 16.34 17.42 5.6.01 10.7-2.43 14.5-6.52zm24.43-59.37v64.81h13.88v-5.53c3.99 4.44 8.99 6.61 14.89 6.61 13.62 0 22.06-10.98 22.06-25.31 0-14.44-8.44-25.33-22.06-25.33-5.9 0-10.89 2.17-14.89 6.62v-21.88h-13.88zm36.12 40.66c0 7.27-3.44 13.27-10.88 13.27-7.54 0-11.36-5.91-11.36-13.27 0-7.26 3.9-13.43 11.36-13.43 7.44 0 10.88 6.17 10.88 13.43zm27.69 7.18l-9.44 6.27c5 8.08 13.98 11.79 24.51 11.79 13.7 0 22.23-6.43 22.23-16.51 0-10.08-8.45-13.53-19.88-15.43-6.08-1-10.71-1.37-10.71-4.46 0-2.27 3.17-3.62 7.07-3.62 6.54 0 11.72 2.71 14.81 5.89l8.26-7.35c-4.26-4.54-12.06-9.16-23.07-9.16-11.15 0-20.41 5.08-20.41 15.52 0 10.61 8.52 13.98 19.97 15.51 5.89.83 10.35 1.46 10.35 4.91 0 2.45-2.82 4-7.81 4-5.72 0-12.25-2.1-15.88-7.36zm45.02-47.84h13.89v10.35h-13.89zm0 16.34h13.89v48.47h-13.89zm58.46-16.34v21.88c-3.89-4.45-8.9-6.62-14.8-6.62-13.61 0-22.06 10.89-22.06 25.33 0 14.34 8.45 25.31 22.06 25.31 5.82 0 10.91-2.17 14.8-6.61v5.53h13.97V242.8h-13.97zm0 40.66c0 7.27-3.71 13.27-11.27 13.27-7.43 0-10.98-6-10.98-13.27 0-7.26 3.55-13.43 10.98-13.43 7.45 0 11.27 6.08 11.27 13.43zm24.51-40.66h13.9v10.35h-13.9zm0 16.34h13.9v48.47h-13.9zm73.07 24.32c0-15.16-10.09-25.41-25.79-25.41s-25.69 10.25-25.69 25.41c0 15.08 9.99 25.24 25.69 25.24 15.7 0 25.79-10.16 25.79-25.24zm-36.77-.08c0-8 3.9-13.72 10.98-13.72 7.17 0 11 5.72 11 13.72 0 7.98-3.83 13.7-11 13.7-7.07 0-10.98-5.72-10.98-13.7zm-959.95-25.38l-17.81 47.09h-8.84l-17.88-47.09h8.97l13.3 37.4 13.42-37.4h8.84zm13.45 47.09v-47.09h8.19v47.09h-8.19zm66.67-37.83l-6.79 4.1c-2.68-4.52-7.07-6.86-12.43-6.86-9.26 0-14.64 7-14.64 16.97 0 10.53 5.59 17.11 14.85 17.11 7.29 0 12.94-4.09 13.58-11.24h-13.02v-7.21h21.15c.22 1 .36 2.56.36 3.82 0 12.02-7.92 21.99-22.21 21.99-14.13 0-23.33-10.19-23.33-24.46 0-14.42 9.26-24.32 23.33-24.32 8.48-.01 15.05 3.81 19.15 10.1zm18.47 37.83v-47.09h8.19v47.09h-8.19zm27 0v-47.09h8.22v39.6h25.3v7.49h-33.52zm79.64 0l-4.47-12.02h-19.5l-4.45 12.02h-8.98l18.43-47.09h9.77l18.45 47.09h-9.25zm-14.15-39.81l-7.64 20.86h15.06l-7.42-20.86zm36.91 39.81v-47.09h18.68c15.05 0 23.33 10.12 23.33 23.55 0 13.36-8.27 23.54-23.33 23.54h-18.68zm18.68-7.49c9.61 0 14.71-6.3 14.71-16.05 0-9.77-5.09-16.06-14.71-16.06h-10.32v32.11h10.32zm59.89 8.34c-14.42 0-23.4-10.6-23.4-24.39 0-13.79 8.98-24.39 23.4-24.39 14.43 0 23.41 10.6 23.41 24.39 0 13.78-8.98 24.39-23.41 24.39zm0-41.15c-9.34 0-14.78 7.07-14.78 16.75s5.44 16.75 14.78 16.75c9.26 0 14.78-7.07 14.78-16.75-.01-9.68-5.52-16.75-14.78-16.75z" vector-effect="non-scaling-stroke" fill="#231f20"/><path d="M1358.58 260.66c0 2.19 1.13 4.09 2.82 5.2-.64-.39-1.3-.73-1.97-1.05a20.139 20.139 0 0 0-8.54-1.88c-2.98 0-5.81.65-8.38 1.8-.1-.21-.22-.42-.33-.64a6.37 6.37 0 0 0 1.02-3.43c0-.95-.22-1.84-.61-2.65.15-.03.31-.06.45-.09 2.13 1.76 4.87 2.82 7.84 2.82 3.72 0 7.05-1.64 9.3-4.24h.01c-1 1.09-1.61 2.55-1.61 4.16z" class="st2_1585694132025" vector-effect="non-scaling-stroke"/><path d="M1371.17 282.89c-.05-3.08-.79-6-2.06-8.59-1.67-3.41-4.29-6.3-7.51-8.3-.06-.03-.13-.08-.19-.13h-.01c-.64-.39-1.3-.73-1.97-1.05a20.139 20.139 0 0 0-8.54-1.88c-2.98 0-5.81.65-8.38 1.8.01 0 .01.02.01.02.04.07.07.15.12.23 1.28 2.61 2 5.5 2.04 8.59.03.11.03.22.03.34v9.31c0-3.43 2.75-6.19 6.17-6.19 3.32 0 6.02 2.6 6.2 5.87v11.35c0-1.5.46-2.88 1.25-4.02.72-1.04 1.72-1.9 2.9-2.42.89-.4 1.87-.61 2.9-.61 1.03 0 2.03.22 2.91.61a7.08 7.08 0 0 1 2.89 2.42 7.018 7.018 0 0 1 1.25 4.02v-11.05c-.01-.1-.01-.21-.01-.32zm-26.49 42.29c0-.19 0-.4-.01-.59-7.87-2.53-13.64-9.73-14.06-18.35h-.01v18.96c.01.11.01.23.01.35 0 .11 0 .22-.01.32-.01.07-.02.15-.02.22-.28 7.42-6.38 13.33-13.85 13.33-4.17 0-7.88-1.82-10.44-4.71 3.36 6.61 10.21 11.14 18.13 11.14 1.62 0 3.21-.19 4.73-.56.49-.12.98-.25 1.46-.41h.01c6.19-1.98 11.05-6.84 13.07-12.99.56-1.7.91-3.48.99-5.36.01-.15.01-.3.01-.45.03-.18.03-.35.03-.53-.01-.12-.01-.24-.04-.37z" class="st3_1585694132025" vector-effect="non-scaling-stroke"/><path d="M1343.04 257.92l-.45.09c-.21-.47-.5-.92-.82-1.31.39.44.82.85 1.27 1.22z" vector-effect="non-scaling-stroke" fill="#58595b"/><path d="M1362.84 245.38c-1.36-5.34-6.2-9.29-11.95-9.29-5.69 0-10.49 3.85-11.9 9.11-.26 1.02-.42 2.09-.42 3.23 0 3.07 1.13 5.9 2.99 8.05.04.03.08.07.1.11.03.04.08.09.12.13.4.44.82.85 1.28 1.22 2.13 1.76 4.87 2.82 7.84 2.82 3.72 0 7.05-1.64 9.3-4.24 1.89-2.17 3.02-5 3.02-8.07-.01-1.09-.13-2.1-.38-3.07z" class="st3_1585694132025" vector-effect="non-scaling-stroke"/><path d="M1342.51 264.73a9.89 9.89 0 0 0-.45-.48c.03-.06.07-.11.11-.16.12.21.23.43.34.64z" vector-effect="non-scaling-stroke" fill="#6d6e70"/><path d="M1336.73 239.1c0 3.09-1.14 5.91-3.01 8.07-2.25 2.6-5.59 4.24-9.3 4.24-3.62 0-6.86-1.55-9.13-4.01 0-.01-.01-.02-.02-.04-.06-.08-.13-.16-.2-.24a12.2 12.2 0 0 1-2.98-8.03c0-6.81 5.51-12.32 12.34-12.32 6.79.01 12.3 5.52 12.3 12.33z" class="st3_1585694132025" vector-effect="non-scaling-stroke"/><path d="M1330.6 294.26v11.02c0 .32.01.66.01.98.42 8.62 6.19 15.81 14.06 18.35a20.577 20.577 0 0 0 6.2.96c1.64 0 3.23-.18 4.75-.54.49-.13.97-.25 1.45-.41 0 0 .02 0 .02-.01a20.343 20.343 0 0 0 13.07-12.99c.53-1.71.89-3.49.98-5.36.01-.16.01-.29.02-.44v-11.55c0-1.5-.47-2.88-1.25-4.02a7.017 7.017 0 0 0-2.89-2.42c-.88-.4-1.87-.61-2.91-.61-1.03 0-2.01.22-2.9.61-1.18.52-2.17 1.38-2.9 2.42a7.018 7.018 0 0 0-1.25 4.02v11.33a6.196 6.196 0 0 1-6.2 5.87c-3.42 0-6.17-2.77-6.17-6.2v-31.36c0-.12 0-.23-.03-.34-.04-3.08-.77-5.98-2.04-8.59-.05-.08-.08-.16-.12-.23l-.01-.02a9.89 9.89 0 0 0-.45-.48c-2.54-2.6-6.05-4.23-9.97-4.23-.44 0-.86.03-1.28.07-7.07.65-12.6 6.58-12.6 13.82 0-3.43 2.77-6.19 6.2-6.19 3.29 0 6.01 2.61 6.18 5.87.01.11.01.21.01.32 0 .12 0 .22-.01.35v20.53m65.23-47.88l-.11-.14-.38-.36-27.89-27.89-1.11-1.12-19.58-19.58-.54-.54c-1.18-.35-2.4-.63-3.64-.83-1.66-.26-3.35-.41-5.09-.41-3.92 0-7.67.72-11.12 2.04-.66.25-1.3.52-1.92.82a30.992 30.992 0 0 0-8.41 5.68c2.24-1.98 5.19-3.18 8.41-3.18 3.27 0 6.26 1.25 8.51 3.3l.02.01c.14.13.28.27.42.4.02.02.06.05.09.08l.1.1 7.2 7.2 25.22 25.23.63.63 18.62 18.63v-.01a7.317 7.317 0 0 0 10.06.25l.01-.02.5-.5.01-.01c1.19-1.3 1.9-3.02 1.9-4.89 0-1.87-.73-3.59-1.91-4.89zm-71.38 84.84c-3.44 0-6.2-2.77-6.2-6.2v-19.31h-.03c-.08 1.87-.42 3.66-.99 5.36 0 .02-.01.04-.03.09-2.02 6.11-6.89 10.93-13.03 12.9h-.01c0 .32-.01.64-.01.96 0 3.3.78 6.42 2.17 9.16 2.56 2.9 6.27 4.71 10.44 4.71 7.47 0 13.57-5.91 13.85-13.33-.28 3.18-2.93 5.66-6.16 5.66z" class="st6_1585694132025" vector-effect="non-scaling-stroke"/><path d="M1333.66 255.44a6.101 6.101 0 0 1-1.55-4.09c0-.31.02-.58.06-.88.18-1.26.74-2.4 1.55-3.29v-.01c-2.25 2.6-5.59 4.24-9.3 4.24-3.62 0-6.86-1.55-9.13-4.01.72.85 1.21 1.9 1.37 3.05.03.29.08.58.08.89 0 1.57-.59 3.01-1.56 4.09-.37.42-.81.81-1.28 1.12.52-.33 1.05-.62 1.61-.88 1.77-.87 3.69-1.5 5.71-1.8 1.05-.19 2.1-.27 3.21-.27 1.08 0 2.14.1 3.19.27 1.87.29 3.67.85 5.34 1.63.12.05.25.1.38.17.55.27 1.07.56 1.6.88v-.02c-.48-.28-.92-.66-1.28-1.09zm-27.43 2.57c.25-.53.56-1.02.93-1.44-.42.48-.89.94-1.4 1.34a12.258 12.258 0 0 1-7.83 2.82c-3.61 0-6.87-1.55-9.11-4.03a6.22 6.22 0 0 1 1.42 3.96c0 2.15-1.08 4.03-2.75 5.15 3.05-1.82 6.62-2.88 10.43-2.88 2.98 0 5.83.64 8.36 1.8.13-.21.24-.42.36-.64a6.26 6.26 0 0 1-1.02-3.43c0-.95.21-1.84.61-2.65z" class="st2_1585694132025" vector-effect="non-scaling-stroke"/><path d="M1309.83 245.19c-1.41-5.25-6.2-9.11-11.9-9.11-5.76 0-10.59 3.94-11.95 9.28a12.345 12.345 0 0 0 2.61 11.1c.08.07.15.16.23.24 2.24 2.48 5.5 4.03 9.11 4.03 2.98 0 5.71-1.06 7.83-2.82.51-.41.98-.87 1.4-1.34 1.92-2.17 3.1-5.04 3.1-8.15.01-1.13-.15-2.21-.43-3.23z" class="st3_1585694132025" vector-effect="non-scaling-stroke"/><path d="M1297.93 262.93c-3.81 0-7.39 1.06-10.43 2.88-.02 0-.06.04-.08.04-.06.05-.14.1-.2.14-5.75 3.59-9.58 9.95-9.58 17.21v11.05c0-1.5.47-2.88 1.27-4.02a7.02 7.02 0 0 1 5.78-3.03c1.05 0 2.03.22 2.9.61a7.045 7.045 0 0 1 4.16 6.44v-11.04a6.18 6.18 0 0 1 6.18-6.19c3.32 0 6.02 2.6 6.19 5.87v-8.99c0-3.31.79-6.41 2.17-9.18a20.374 20.374 0 0 0-8.36-1.79z" class="st6_1585694132025" vector-effect="non-scaling-stroke"/><path d="M1337.52 258.44a18.61 18.61 0 0 0-2.39-1.76c-.07-.04-.13-.09-.21-.11-.52-.33-1.05-.62-1.6-.88-.12-.07-.26-.12-.38-.17-1.67-.78-3.46-1.34-5.34-1.63-1.05-.17-2.11-.27-3.19-.27-1.11 0-2.16.08-3.21.27-2.02.3-3.94.93-5.71 1.8-.56.27-1.09.56-1.61.88-.08.04-.17.1-.26.14-.82.51-1.6 1.1-2.34 1.73a20.313 20.313 0 0 0-4.65 5.65c-.12.22-.22.44-.36.64a20.485 20.485 0 0 0-2.17 9.18v8.99c.01.1.01.21.01.32 0 .11 0 .23-.01.34v21.37c.01.1.01.22.01.33 0 .1 0 .22-.01.32a6.194 6.194 0 0 1-6.19 5.87c-3.41 0-6.18-2.77-6.18-6.2v-11.01c0-2.86-1.69-5.32-4.16-6.44-.87-.4-1.85-.61-2.9-.61-2.4 0-4.51 1.19-5.78 3.03a6.96 6.96 0 0 0-1.27 4.02v11.02c0 11.21 9.1 20.28 20.3 20.28 1.63 0 3.22-.18 4.75-.54.06-.02.1-.04.17-.06.43-.1.84-.21 1.26-.35h.01l.01-.01a20.238 20.238 0 0 0 13.03-12.9c.02-.05.03-.07.03-.09.57-1.7.91-3.49.99-5.36.01-.16.01-.29.01-.44.02-.19.02-.36.02-.53V273.9c0-7.24 5.53-13.17 12.6-13.82.42-.03.84-.07 1.28-.07 3.92 0 7.43 1.63 9.97 4.23.03-.06.07-.11.11-.16a20.236 20.236 0 0 0-4.64-5.64zm.41-69.4a18.467 18.467 0 0 0-3.58-2.82c-2.89-1.78-6.3-2.79-9.92-2.79-3.66 0-7.07 1.01-9.95 2.78-1.02.63-1.97 1.32-2.83 2.11l-1.46 1.47-7.52 7.5-.54.53-19.61 19.63-1.11 1.1-27.85 27.84-.03.03-.01.01-.5.5-.02.02a7.28 7.28 0 0 0-1.87 4.89c0 1.85.7 3.56 1.83 4.85l.56.55.01.03a7.377 7.377 0 0 0 4.89 1.87c2.02 0 3.84-.81 5.17-2.13l.01.01 18.63-18.64.62-.62 25.23-25.23 6.68-6.67.48-.5c.01-.01.04-.03.06-.04.12-.13.24-.26.38-.38 0-.01.02-.01.02-.03.12-.1.23-.21.32-.3 2.46-2.33 5.3-4.26 8.41-5.68.62-.3 1.26-.57 1.92-.82 3.46-1.32 7.21-2.04 11.12-2.04 1.74 0 3.43.15 5.09.41 1.23.2 2.46.48 3.64.83l-8.27-8.27z" class="st3_1585694132025" vector-effect="non-scaling-stroke"/></g></svg>